<svg width="24" height="24" viewBox="0 0 24 24" fill="none" xmlns="http://www.w3.org/2000/svg">
<g id="ring/notification/3">
<path id="Icon (Stroke)" fill-rule="evenodd" clip-rule="evenodd" d="M8.67272 1.55519C8.9185 2.04977 8.71681 2.64995 8.22223 2.89574C6.09912 3.95083 4.51205 5.92108 3.97543 8.28599C3.85321 8.82458 3.31752 9.16212 2.77893 9.03991C2.24034 8.9177 1.9028 8.38201 2.02501 7.84341C2.69712 4.88142 4.68132 2.42207 7.33217 1.10471C7.82675 0.858922 8.42693 1.06061 8.67272 1.55519ZM15.1047 1.55519C15.3505 1.06061 15.9507 0.858922 16.4453 1.10471C19.0961 2.42207 21.0803 4.88142 21.7524 7.84341C21.8746 8.38201 21.5371 8.9177 20.9985 9.03991C20.4599 9.16212 19.9242 8.82458 19.802 8.28599C19.2654 5.92108 17.6783 3.95083 15.5552 2.89574C15.0606 2.64995 14.8589 2.04977 15.1047 1.55519ZM12.0002 5.00031C9.21036 5.00031 6.96659 7.13582 6.96659 10.0003V13.1596C6.96659 13.7465 6.87513 14.33 6.69537 14.8878L6.33691 16.0002H17.6273L17.263 14.8696C17.0872 14.324 16.9976 13.7543 16.9976 13.1811V10.0003C16.9976 7.22976 14.7697 5.00031 12.0002 5.00031ZM4.96659 10.0003C4.96659 5.99193 8.14552 3.00031 12.0002 3.00031C15.8754 3.00031 18.9976 6.12631 18.9976 10.0003V13.1811C18.9976 13.5461 19.0546 13.9088 19.1666 14.2562L19.9101 16.5632C20.1389 17.2732 19.6094 18.0002 18.8634 18.0002H5.09398C4.30465 18.0002 3.83966 17.2289 4.05331 16.5659L4.79177 14.2744C4.90744 13.9155 4.96659 13.539 4.96659 13.1596V10.0003ZM8.33849 18.8963C8.75256 18.5308 9.3845 18.5702 9.74996 18.9843C10.3011 19.6088 11.1043 20.0002 12.0002 20.0002C12.8961 20.0002 13.6993 19.6088 14.2505 18.9843C14.616 18.5702 15.2479 18.5308 15.662 18.8963C16.076 19.2618 16.1154 19.8937 15.75 20.3078C14.8352 21.3441 13.4937 22.0002 12.0002 22.0002C10.5067 22.0002 9.1652 21.3441 8.25048 20.3078C7.88502 19.8937 7.92442 19.2618 8.33849 18.8963Z" fill="#E0E0E0"/>
</g>
</svg>
