<svg width="122" height="56" viewBox="0 0 122 56" fill="none" xmlns="http://www.w3.org/2000/svg">
<g id="Group 427318268">
<path id="line" d="M21.6333 21.8173C12.829 22.7262 9.3124 37.2592 2 37.2592V55.3387H13.0977H119.988L120 18.3562C112.602 21.0655 107.912 1.26314 100.367 3.12358C92.0714 5.16908 90.6669 28.2071 80.7334 28.2071C72.9088 28.2071 68.837 19.4593 61.1002 21.0186C52.0231 22.848 50.4096 46.46 41.2666 47.5663C33.2096 48.5412 29.6993 20.9846 21.6333 21.8173Z" fill="url(#paint0_linear_145_7988)" fill-opacity="0.25"/>
<path id="line_2" d="M2 37.0249C9.3124 37.0249 12.829 22.5913 21.6333 21.6886C29.6993 20.8616 33.2096 48.2297 41.2666 47.2615C50.4096 46.1628 52.0231 22.7122 61.1002 20.8953C68.837 19.3467 72.9088 28.0347 80.7334 28.0347C90.6669 28.0347 92.0713 5.15424 100.367 3.12274C107.912 1.27502 112.602 20.942 120 18.2511" stroke="#0AB28B" stroke-width="4" stroke-linecap="round"/>
</g>
<defs>
<linearGradient id="paint0_linear_145_7988" x1="61" y1="3" x2="61" y2="55.3387" gradientUnits="userSpaceOnUse">
<stop stop-color="#0AB28B"/>
<stop offset="1" stop-color="#0AB28B" stop-opacity="0"/>
</linearGradient>
</defs>
</svg>
