<svg width="28" height="28" viewBox="0 0 28 28" fill="none" xmlns="http://www.w3.org/2000/svg">
<g id="star/check">
<path id="Icon (Stroke)" fill-rule="evenodd" clip-rule="evenodd" d="M11.9776 3.48673C12.8814 1.93728 15.1228 1.94473 16.0163 3.50015L18.4225 7.68871C18.5901 7.98043 18.8755 8.1856 19.2053 8.25158L22.7351 8.95754C24.5022 9.31095 25.2187 11.4489 24.0215 12.7957L21.5091 15.6222C21.2573 15.9054 21.1588 16.2933 21.2449 16.6624L22.3907 21.5727C22.8576 23.5739 20.6967 25.1579 18.9288 24.1102L14.5956 21.5424C14.2288 21.325 13.7728 21.325 13.406 21.5424L9.07279 24.1102C7.3049 25.1579 5.144 23.5739 5.61096 21.5727L6.74675 16.705C6.83561 16.3241 6.72774 15.9241 6.45945 15.6395L3.95015 12.9782C2.69291 11.6447 3.39316 9.44887 5.19026 9.08945L8.65959 8.39558C8.98683 8.33013 9.27038 8.12768 9.43853 7.83942L11.9776 3.48674M13.9931 4.66243L11.454 9.01512C10.9496 9.8799 10.0989 10.4873 9.1172 10.6836L5.64786 11.3775L4.79901 12.1778L5.64786 11.3775L8.15716 14.0388L7.30831 14.8392L8.15716 14.0388C8.96203 14.8925 9.28564 16.0926 9.01904 17.2352L7.88325 22.1029L12.2165 19.535C13.3167 18.883 14.6849 18.883 15.7851 19.535L20.1184 22.1029L18.9726 17.1926C18.7143 16.0854 19.0098 14.9217 19.7652 14.072L22.2775 11.2456L18.7477 10.5396C17.7581 10.3417 16.902 9.72615 16.3993 8.851L13.9931 4.66243ZM17.1591 11.6199C17.6147 12.0755 17.6147 12.8142 17.1591 13.2698L14.873 15.556C13.9617 16.4672 12.4843 16.4672 11.5731 15.556L10.8425 14.8254C10.3869 14.3698 10.3869 13.6311 10.8425 13.1755C11.2981 12.7199 12.0368 12.7199 12.4924 13.1755L13.223 13.9061L15.5092 11.6199C15.9648 11.1643 16.7035 11.1643 17.1591 11.6199Z" fill="#313131"/>
</g>
</svg>
