<svg width="28" height="28" viewBox="0 0 28 28" fill="none" xmlns="http://www.w3.org/2000/svg">
<g id="coins">
<path id="Icon (Stroke)" fill-rule="evenodd" clip-rule="evenodd" d="M5.94924 4.66699C6.15926 4.82941 6.52967 5.02472 7.08585 5.21011C8.20453 5.583 9.82417 5.83366 11.6667 5.83366C13.5092 5.83366 15.1288 5.583 16.2475 5.21011C16.8037 5.02472 17.1741 4.82941 17.3841 4.66699C17.1741 4.50457 16.8037 4.30927 16.2475 4.12387C15.1288 3.75098 13.5092 3.50033 11.6667 3.50033C9.82417 3.50033 8.20453 3.75098 7.08585 4.12387C6.52967 4.30927 6.15926 4.50457 5.94924 4.66699ZM17.5 7.23506C17.3326 7.30254 17.1605 7.36531 16.9853 7.42371C15.5705 7.89531 13.6902 8.16699 11.6667 8.16699C9.64317 8.16699 7.76281 7.89531 6.34799 7.42371C6.17281 7.36531 6.00073 7.30254 5.83333 7.23506V9.23138C5.85402 9.2534 5.8873 9.28492 5.9389 9.32558C6.147 9.48958 6.52042 9.6883 7.08585 9.87678C8.20453 10.2497 9.82417 10.5003 11.6667 10.5003C13.5092 10.5003 15.1288 10.2497 16.2475 9.87678C16.8129 9.6883 17.1863 9.48958 17.3944 9.32558C17.446 9.28492 17.4793 9.2534 17.5 9.23138V7.23506ZM17.5302 9.19354C17.5305 9.19355 17.5291 9.19615 17.5254 9.20129C17.5281 9.19609 17.5299 9.19352 17.5302 9.19354ZM5.80313 9.19354C5.80339 9.19352 5.80523 9.19609 5.80789 9.20129C5.80421 9.19615 5.80288 9.19355 5.80313 9.19354ZM19.8333 4.66699V8.32651C20.8545 8.50847 21.7736 8.77328 22.51 9.11452C22.9962 9.33978 23.46 9.62444 23.8183 9.98881C24.1812 10.3578 24.5 10.8797 24.5 11.5342V16.2009C24.5 17.0338 23.9926 17.6415 23.5054 18.0255C23.005 18.4198 22.3533 18.7239 21.652 18.9576C21.1084 19.1388 20.4961 19.2905 19.8333 19.4086V23.0682C19.8333 23.9011 19.3259 24.5088 18.8387 24.8927C18.3384 25.2871 17.6867 25.5911 16.9853 25.8249C15.5705 26.2965 13.6902 26.5682 11.6667 26.5682C9.64317 26.5682 7.76281 26.2965 6.34799 25.8249C5.64667 25.5911 4.99497 25.2871 4.49463 24.8927C4.00744 24.5088 3.5 23.9011 3.5 23.0682V18.4015C3.5 17.747 3.81884 17.225 4.18166 16.8561C4.53998 16.4917 5.00382 16.2071 5.48997 15.9818C6.22645 15.6405 7.14551 15.3757 8.16667 15.1938V12.5414C7.50391 12.4233 6.89159 12.2716 6.34799 12.0904C5.64667 11.8566 4.99497 11.5525 4.49463 11.1582C4.00744 10.7743 3.5 10.1665 3.5 9.33366V4.66699C3.5 3.83414 4.00744 3.22639 4.49463 2.84244C4.99497 2.44813 5.64667 2.14405 6.34799 1.91028C7.76281 1.43867 9.64317 1.16699 11.6667 1.16699C13.6902 1.16699 15.5705 1.43867 16.9853 1.91028C17.6867 2.14405 18.3384 2.44813 18.8387 2.84244C19.3259 3.22639 19.8333 3.83414 19.8333 4.66699ZM10.5 14.1023V16.0986C10.5207 16.1207 10.554 16.1522 10.6056 16.1929C10.8137 16.3569 11.1871 16.5556 11.7525 16.744C12.8712 17.1169 14.4908 17.3676 16.3333 17.3676C18.1758 17.3676 19.7955 17.1169 20.9141 16.744C21.4796 16.5556 21.853 16.3569 22.0611 16.1929C22.1127 16.1522 22.146 16.1207 22.1667 16.0986V14.1023C21.9993 14.1698 21.8272 14.2325 21.652 14.2909C20.2372 14.7625 18.3568 15.0342 16.3333 15.0342C14.3098 15.0342 12.4295 14.7625 11.0147 14.2909C10.8395 14.2325 10.6674 14.1698 10.5 14.1023ZM22.1921 11.4019C22.1948 11.3967 22.1966 11.3941 22.1969 11.3941C22.1971 11.3941 22.1958 11.3967 22.1921 11.4019ZM22.0508 11.5342C21.8408 11.6966 21.4703 11.8919 20.9141 12.0773C19.7955 12.4502 18.1758 12.7009 16.3333 12.7009C15.7409 12.7009 15.1714 12.675 14.6343 12.6274C15.503 12.5009 16.299 12.3192 16.9853 12.0904C17.6867 11.8566 18.3384 11.5525 18.8387 11.1582C19.0261 11.0106 19.2164 10.8298 19.3798 10.6159C20.276 10.7726 21.0086 10.9905 21.5291 11.2316C21.7729 11.3446 21.9412 11.4495 22.0508 11.5342ZM10.4698 11.3941C10.4701 11.3941 10.4719 11.3967 10.4746 11.4019C10.4709 11.3967 10.4695 11.3941 10.4698 11.3941ZM22.1969 16.0608C22.1971 16.0608 22.1958 16.0634 22.1921 16.0686C22.1948 16.0634 22.1966 16.0608 22.1969 16.0608ZM10.4698 16.0608C10.4701 16.0608 10.4719 16.0634 10.4746 16.0686C10.4709 16.0634 10.4695 16.0608 10.4698 16.0608ZM8.62024 17.4831C7.72402 17.6399 6.99145 17.8577 6.47094 18.0989C6.22706 18.2119 6.05884 18.3167 5.94923 18.4015C6.15924 18.5639 6.52965 18.7592 7.08585 18.9446C8.20453 19.3175 9.82417 19.5682 11.6667 19.5682C12.2591 19.5682 12.8286 19.5422 13.3657 19.4947C12.497 19.3682 11.701 19.1864 11.0147 18.9576C10.3133 18.7239 9.66163 18.4198 9.16129 18.0255C8.97393 17.8778 8.78358 17.6971 8.62024 17.4831ZM17.5 20.9696C17.3326 21.037 17.1605 21.0998 16.9853 21.1582C15.5705 21.6298 13.6902 21.9015 11.6667 21.9015C9.64317 21.9015 7.76281 21.6298 6.34799 21.1582C6.17281 21.0998 6.00073 21.037 5.83333 20.9696V22.9659C5.85402 22.9879 5.8873 23.0195 5.9389 23.0601C6.147 23.2241 6.52042 23.4228 7.08585 23.6113C8.20453 23.9842 9.82417 24.2349 11.6667 24.2349C13.5092 24.2349 15.1288 23.9842 16.2475 23.6113C16.8129 23.4228 17.1863 23.2241 17.3944 23.0601C17.446 23.0195 17.4793 22.9879 17.5 22.9659V20.9696ZM17.5302 22.9281C17.5305 22.9281 17.5291 22.9307 17.5254 22.9358C17.5281 22.9306 17.5299 22.9281 17.5302 22.9281ZM5.80313 22.9281C5.80339 22.9281 5.80523 22.9306 5.80789 22.9358C5.80421 22.9307 5.80288 22.9281 5.80313 22.9281ZM5.80313 18.2614C5.80339 18.2614 5.80523 18.2639 5.80789 18.2691C5.80421 18.264 5.80288 18.2614 5.80313 18.2614ZM17.5254 18.2691C17.5281 18.2639 17.5299 18.2614 17.5302 18.2614C17.5305 18.2614 17.5291 18.264 17.5254 18.2691ZM17.5254 4.53462C17.5281 4.52943 17.5299 4.52686 17.5302 4.52687C17.5305 4.52689 17.5291 4.52948 17.5254 4.53462ZM5.80789 4.53462C5.80421 4.52949 5.80288 4.52689 5.80313 4.52687C5.80339 4.52686 5.80523 4.52943 5.80789 4.53462Z" fill="#313131"/>
</g>
</svg>
