<svg width="42" height="42" viewBox="0 0 42 42" fill="none" xmlns="http://www.w3.org/2000/svg">
<g id="coins">
<path id="Icon (Stroke)" fill-rule="evenodd" clip-rule="evenodd" d="M9.14684 7.25922C9.45604 7.49834 10.0014 7.78587 10.8202 8.05881C12.4671 8.60779 14.8516 8.97681 17.5642 8.97681C20.2767 8.97681 22.6612 8.60779 24.3081 8.05881C25.127 7.78587 25.6723 7.49834 25.9815 7.25922C25.6723 7.0201 25.127 6.73257 24.3081 6.45963C22.6612 5.91065 20.2767 5.54163 17.5642 5.54163C14.8516 5.54163 12.4671 5.91065 10.8202 6.45963C10.0014 6.73257 9.45604 7.0201 9.14684 7.25922ZM26.1521 11.04C25.9057 11.1393 25.6523 11.2318 25.3944 11.3177C23.3115 12.012 20.5432 12.412 17.5642 12.412C14.5851 12.412 11.8168 12.012 9.73388 11.3177C9.47599 11.2318 9.22265 11.1393 8.9762 11.04V13.979C9.00666 14.0114 9.05565 14.0578 9.13161 14.1177C9.43798 14.3591 9.98774 14.6517 10.8202 14.9292C12.4671 15.4782 14.8516 15.8472 17.5642 15.8472C20.2767 15.8472 22.6612 15.4782 24.3081 14.9292C25.1406 14.6517 25.6903 14.3591 25.9967 14.1177C26.0727 14.0578 26.1217 14.0114 26.1521 13.979V11.04ZM26.1966 13.9233C26.197 13.9233 26.195 13.9272 26.1896 13.9347C26.1935 13.9271 26.1962 13.9233 26.1966 13.9233ZM8.93174 13.9233C8.93212 13.9233 8.93483 13.9271 8.93875 13.9347C8.93332 13.9272 8.93136 13.9233 8.93174 13.9233ZM29.5873 7.25922V12.6469C31.0907 12.9147 32.4437 13.3046 33.528 13.807C34.2437 14.1386 34.9266 14.5577 35.4541 15.0941C35.9883 15.6373 36.4577 16.4058 36.4577 17.3693V24.2397C36.4577 25.4659 35.7106 26.3606 34.9934 26.9259C34.2568 27.5064 33.2973 27.9541 32.2648 28.2982C31.4645 28.565 30.563 28.7883 29.5873 28.9622V34.3499C29.5873 35.576 28.8403 36.4708 28.123 37.036C27.3864 37.6165 26.4269 38.0642 25.3944 38.4084C23.3115 39.1027 20.5432 39.5027 17.5642 39.5027C14.5851 39.5027 11.8168 39.1027 9.73388 38.4084C8.70139 38.0642 7.74194 37.6165 7.00532 37.036C6.28808 36.4708 5.54102 35.576 5.54102 34.3499V27.4795C5.54102 26.5159 6.01041 25.7475 6.54457 25.2043C7.0721 24.6678 7.75498 24.2488 8.4707 23.9171C9.55495 23.4147 10.908 23.0249 12.4114 22.757V18.852C11.4357 18.6782 10.5342 18.4549 9.73388 18.1881C8.70139 17.8439 7.74194 17.3963 7.00532 16.8157C6.28808 16.2505 5.54102 15.3557 5.54102 14.1296V7.25922C5.54102 6.03308 6.28808 5.13833 7.00532 4.57308C7.74194 3.99256 8.70139 3.54489 9.73388 3.20073C11.8168 2.50642 14.5851 2.10645 17.5642 2.10645C20.5432 2.10645 23.3115 2.50642 25.3944 3.20073C26.4269 3.54489 27.3864 3.99256 28.123 4.57308C28.8403 5.13833 29.5873 6.03308 29.5873 7.25922ZM15.8466 21.1501V24.0892C15.877 24.1216 15.926 24.168 16.002 24.2278C16.3084 24.4693 16.8581 24.7618 17.6906 25.0393C19.3375 25.5883 21.722 25.9573 24.4345 25.9573C27.1471 25.9573 29.5316 25.5883 31.1785 25.0393C32.011 24.7618 32.5607 24.4693 32.8671 24.2278C32.9431 24.168 32.992 24.1216 33.0225 24.0892V21.1501C32.776 21.2494 32.5227 21.3418 32.2648 21.4278C30.1819 22.1221 27.4136 22.5221 24.4345 22.5221C21.4555 22.5221 18.6872 22.1221 16.6043 21.4278C16.3464 21.3418 16.093 21.2494 15.8466 21.1501ZM33.0599 17.1744C33.0639 17.1668 33.0666 17.163 33.067 17.163C33.0673 17.163 33.0654 17.1669 33.0599 17.1744ZM32.8519 17.3693C32.5427 17.6084 31.9974 17.8959 31.1785 18.1689C29.5316 18.7179 27.1471 19.0869 24.4345 19.0869C23.5623 19.0869 22.7239 19.0487 21.9331 18.9787C23.2121 18.7925 24.3839 18.5249 25.3944 18.1881C26.4269 17.8439 27.3864 17.3963 28.123 16.8157C28.3988 16.5984 28.6791 16.3322 28.9196 16.0173C30.239 16.248 31.3175 16.5688 32.0838 16.9238C32.4428 17.0902 32.6905 17.2445 32.8519 17.3693ZM15.8021 17.163C15.8025 17.163 15.8052 17.1668 15.8091 17.1744C15.8037 17.1669 15.8017 17.163 15.8021 17.163ZM33.067 24.0334C33.0673 24.0335 33.0654 24.0373 33.0599 24.0449C33.0639 24.0372 33.0666 24.0334 33.067 24.0334ZM15.8021 24.0334C15.8025 24.0334 15.8052 24.0372 15.8091 24.0449C15.8037 24.0373 15.8017 24.0335 15.8021 24.0334ZM13.0791 26.1274C11.7597 26.3582 10.6812 26.6789 9.9149 27.034C9.55586 27.2003 9.30819 27.3547 9.14682 27.4794C9.45601 27.7186 10.0013 28.0061 10.8202 28.279C12.4671 28.828 14.8516 29.197 17.5642 29.197C18.4364 29.197 19.2748 29.1589 20.0655 29.0889C18.7866 28.9026 17.6148 28.6351 16.6043 28.2982C15.5718 27.9541 14.6123 27.5064 13.8757 26.9259C13.5999 26.7085 13.3196 26.4424 13.0791 26.1274ZM26.1521 31.2602C25.9057 31.3596 25.6523 31.452 25.3944 31.5379C23.3115 32.2323 20.5432 32.6322 17.5642 32.6322C14.5851 32.6322 11.8168 32.2323 9.73388 31.5379C9.47599 31.452 9.22265 31.3596 8.9762 31.2602V34.1993C9.00666 34.2317 9.05565 34.2781 9.13161 34.338C9.43798 34.5794 9.98774 34.872 10.8202 35.1495C12.4671 35.6985 14.8516 36.0675 17.5642 36.0675C20.2767 36.0675 22.6612 35.6985 24.3081 35.1495C25.1406 34.872 25.6903 34.5794 25.9967 34.338C26.0727 34.2781 26.1217 34.2317 26.1521 34.1993V31.2602ZM26.1966 34.1436C26.197 34.1436 26.195 34.1474 26.1896 34.155C26.1935 34.1474 26.1962 34.1436 26.1966 34.1436ZM8.93174 34.1436C8.93212 34.1436 8.93483 34.1474 8.93875 34.155C8.93332 34.1474 8.93136 34.1436 8.93174 34.1436ZM8.93174 27.2732C8.93212 27.2731 8.93483 27.2769 8.93875 27.2846C8.93332 27.277 8.93136 27.2732 8.93174 27.2732ZM26.1896 27.2846C26.1935 27.2769 26.1962 27.2731 26.1966 27.2732C26.197 27.2732 26.195 27.277 26.1896 27.2846ZM26.1896 7.06434C26.1935 7.05669 26.1962 7.05291 26.1966 7.05293C26.197 7.05296 26.195 7.05678 26.1896 7.06434ZM8.93875 7.06435C8.93332 7.05678 8.93136 7.05296 8.93174 7.05293C8.93212 7.05291 8.93483 7.05669 8.93875 7.06435Z" fill="#313131"/>
</g>
</svg>
