<svg width="29" height="28" viewBox="0 0 29 28" fill="none" xmlns="http://www.w3.org/2000/svg">
<g id="home/circle" clip-path="url(#clip0_516_1693)">
<path id="Icon (Stroke)" fill-rule="evenodd" clip-rule="evenodd" d="M0.5 14C0.5 6.26801 6.76801 0 14.5 0C22.232 0 28.5 6.26801 28.5 14C28.5 21.732 22.232 28 14.5 28C6.76801 28 0.5 21.732 0.5 14ZM14.5 2.33333C8.05668 2.33333 2.83333 7.55668 2.83333 14C2.83333 20.4433 8.05668 25.6667 14.5 25.6667C20.9433 25.6667 26.1667 20.4433 26.1667 14C26.1667 7.55668 20.9433 2.33333 14.5 2.33333ZM14.5 7.38182L10.2329 11.1059C9.97901 11.3274 9.83333 11.6479 9.83333 11.9848V17.5C9.83333 18.1443 10.3557 18.6667 11 18.6667H18C18.6443 18.6667 19.1667 18.1443 19.1667 17.5V11.9848C19.1667 11.6479 19.021 11.3274 18.7671 11.1059L14.5 7.38182ZM12.9658 5.62383C13.8447 4.8567 15.1553 4.8567 16.0342 5.62383L20.3014 9.34786C21.063 10.0125 21.5 10.974 21.5 11.9848V17.5C21.5 19.433 19.933 21 18 21H11C9.067 21 7.5 19.433 7.5 17.5V11.9848C7.5 10.974 7.93704 10.0125 8.69863 9.34786L12.9658 5.62383Z" fill="#E0E0E0"/>
</g>
<defs>
<clipPath id="clip0_516_1693">
<rect width="28" height="28" fill="white" transform="translate(0.5)"/>
</clipPath>
</defs>
</svg>
