<svg width="29" height="28" viewBox="0 0 29 28" fill="none" xmlns="http://www.w3.org/2000/svg">
<g id="deconstruct">
<path id="Icon (Stroke)" fill-rule="evenodd" clip-rule="evenodd" d="M8.66667 5.25C8.66667 4.2835 9.45017 3.5 10.4167 3.5H13.9167C14.8832 3.5 15.6667 4.2835 15.6667 5.25V8.75C15.6667 9.7165 14.8832 10.5 13.9167 10.5H10.4167C9.45017 10.5 8.66667 9.7165 8.66667 8.75V5.25ZM11 5.83333V8.16667H13.3333V5.83333H11ZM20.3333 10.5V13.4167C20.3333 14.3832 19.5498 15.1667 18.5833 15.1667H15.6667V18.0833C15.6667 19.0498 14.8832 19.8333 13.9167 19.8333H11V23.3333H23.8333V10.5H20.3333ZM8.66667 19.8333V23.9167C8.66667 24.8832 9.45017 25.6667 10.4167 25.6667H24.4167C25.3832 25.6667 26.1667 24.8832 26.1667 23.9167V9.91667C26.1667 8.95017 25.3832 8.16667 24.4167 8.16667H19.75C18.7835 8.16667 18 8.95017 18 9.91667V12.8333H15.0833C14.1168 12.8333 13.3333 13.6168 13.3333 14.5833V17.5H11V14.5833C11 13.6168 10.2165 12.8333 9.25 12.8333H5.75C4.7835 12.8333 4 13.6168 4 14.5833V18.0833C4 19.0498 4.7835 19.8333 5.75 19.8333H8.66667ZM8.66667 17.5V15.1667H6.33333V17.5H8.66667Z" fill="#E0E0E0"/>
</g>
</svg>
