<svg width="29" height="28" viewBox="0 0 29 28" fill="none" xmlns="http://www.w3.org/2000/svg">
<g id="user/double" clip-path="url(#clip0_516_1679)">
<path id="Icon (Stroke)" fill-rule="evenodd" clip-rule="evenodd" d="M5.21587 5.07225C5.5888 2.2102 8.03629 0 11 0H21.5C25.366 0 28.5 3.13401 28.5 7V17.5C28.5 20.4637 26.2898 22.9112 23.4278 23.2841C23.3339 23.5937 23.2168 23.8905 23.0704 24.1779C22.3993 25.4951 21.3284 26.5659 20.0113 27.237C19.1955 27.6527 18.3045 27.8313 17.2597 27.9167C16.2393 28 14.9746 28 13.3844 28H10.9489C9.35871 28 8.09402 28 7.07367 27.9167C6.02881 27.8313 5.13786 27.6527 4.32207 27.237C3.00493 26.5659 1.93407 25.4951 1.26295 24.1779C0.84729 23.3621 0.668719 22.4712 0.583349 21.4263C0.499983 20.406 0.499991 19.1413 0.5 17.5511V15.1156C0.499991 13.5254 0.499983 12.2607 0.583349 11.2403C0.668719 10.1955 0.84729 9.30452 1.26295 8.48873C1.93407 7.1716 3.00493 6.10073 4.32207 5.42962C4.60952 5.28316 4.9063 5.16613 5.21587 5.07225ZM7.68386 4.71088C8.58761 4.66665 9.66162 4.66666 10.9489 4.66667H13.3844C14.9746 4.66666 16.2393 4.66665 17.2597 4.75002C18.3045 4.83538 19.1955 5.01396 20.0113 5.42962C21.3284 6.10073 22.3993 7.1716 23.0704 8.48873C23.486 9.30452 23.6646 10.1955 23.75 11.2403C23.8334 12.2607 23.8333 13.5254 23.8333 15.1156V17.5511C23.8333 18.8384 23.8333 19.9124 23.7891 20.8161C25.1716 20.3484 26.1667 19.0404 26.1667 17.5V7C26.1667 4.42267 24.0773 2.33333 21.5 2.33333H11C9.45961 2.33333 8.15164 3.32844 7.68386 4.71088ZM7.26368 7.0756C6.36311 7.14918 5.81341 7.28851 5.38138 7.50864C4.50329 7.95605 3.78938 8.66996 3.34197 9.54804C3.12184 9.98007 2.98251 10.5298 2.90893 11.4303C2.83424 12.3445 2.83333 13.5139 2.83333 15.1667V17.5C2.83333 19.1527 2.83424 20.3221 2.90893 21.2363C2.98251 22.1369 3.12184 22.6866 3.34197 23.1186C3.78938 23.9967 4.50329 24.7106 5.38138 25.158C5.81341 25.3782 6.36311 25.5175 7.26368 25.5911C8.17787 25.6658 9.34726 25.6667 11 25.6667H13.3333C14.9861 25.6667 16.1555 25.6658 17.0697 25.5911C17.9702 25.5175 18.5199 25.3782 18.952 25.158C19.83 24.7106 20.544 23.9967 20.9914 23.1186C21.2115 22.6866 21.3508 22.1369 21.4244 21.2363C21.4991 20.3221 21.5 19.1527 21.5 17.5V15.1667C21.5 13.5139 21.4991 12.3445 21.4244 11.4303C21.3508 10.5298 21.2115 9.98007 20.9914 9.54804C20.544 8.66995 19.83 7.95605 18.952 7.50864C18.5199 7.28851 17.9702 7.14918 17.0697 7.0756C16.1555 7.00091 14.9861 7 13.3333 7H11C9.34726 7 8.17787 7.00091 7.26368 7.0756ZM12.205 12.8333C11.0931 12.8333 10.2797 13.6836 10.2797 14.6264C10.2797 15.5691 11.0931 16.4194 12.205 16.4194C13.3168 16.4194 14.1302 15.5691 14.1302 14.6264C14.1302 13.6836 13.3168 12.8333 12.205 12.8333ZM7.94642 14.6264C7.94642 12.2999 9.90158 10.5 12.205 10.5C14.5083 10.5 16.4635 12.2999 16.4635 14.6264C16.4635 15.7338 16.0204 16.722 15.3077 17.4534C16.1531 17.8133 16.9455 18.3257 17.6401 18.9906C18.1055 19.4361 18.1217 20.1746 17.6761 20.6401C17.2306 21.1055 16.492 21.1217 16.0266 20.6761C13.9004 18.6408 10.4329 18.6408 8.30675 20.6761C7.8413 21.1217 7.10278 21.1055 6.65723 20.6401C6.21167 20.1746 6.2278 19.4361 6.69325 18.9906C7.40266 18.3115 8.21421 17.7915 9.08005 17.4305C8.38029 16.7014 7.94642 15.7223 7.94642 14.6264Z" fill="#E0E0E0"/>
</g>
<defs>
<clipPath id="clip0_516_1679">
<rect width="28" height="28" fill="white" transform="translate(0.5)"/>
</clipPath>
</defs>
</svg>
