<svg width="24" height="24" viewBox="0 0 24 24" fill="none" xmlns="http://www.w3.org/2000/svg">
<g id="edit/2">
<path id="Icon (Stroke)" fill-rule="evenodd" clip-rule="evenodd" d="M16.4435 5.93211C16.1637 5.79346 15.8352 5.79346 15.5555 5.93211C15.4455 5.98661 15.3089 6.10447 14.7066 6.7068L14.4137 6.99972L16.9995 9.5855L17.2924 9.29259C17.8947 8.69025 18.0126 8.55369 18.0671 8.44371C18.2057 8.16394 18.2057 7.83546 18.0671 7.55568C18.0126 7.4457 17.8947 7.30915 17.2924 6.7068C16.69 6.10446 16.5535 5.98661 16.4435 5.93211ZM17.711 11.7024L18.7066 10.7068C18.7397 10.6737 18.7725 10.641 18.805 10.6086C19.2518 10.1629 19.6382 9.77755 19.8591 9.33174C20.275 8.49241 20.275 7.50698 19.8591 6.66765C19.6382 6.22185 19.2518 5.83645 18.8049 5.39078C18.7725 5.35838 18.7397 5.32567 18.7066 5.29259C18.6735 5.25951 18.6408 5.22671 18.6084 5.19423C18.1627 4.74738 17.7773 4.36098 17.3315 4.14007C16.4922 3.72414 15.5068 3.72414 14.6674 4.14007C14.2216 4.36098 13.8362 4.74739 13.3906 5.19423C13.3582 5.22671 13.3255 5.25951 13.2924 5.29259L5.82654 12.7584C5.81527 12.7697 5.80408 12.7809 5.79298 12.792C5.62652 12.9582 5.47959 13.105 5.35261 13.2733C5.24083 13.4215 5.14305 13.5797 5.06052 13.7459C4.96676 13.9348 4.90119 14.1318 4.82691 14.3551C4.82196 14.37 4.81696 14.385 4.81192 14.4001L4.04881 16.6895C3.89789 17.1421 3.7635 17.5452 3.686 17.875C3.60962 18.2001 3.53745 18.6434 3.69682 19.0903C3.89845 19.6558 4.34342 20.1007 4.90887 20.3024C5.35578 20.4617 5.79912 20.3896 6.12418 20.3132C6.45398 20.2357 6.85708 20.1013 7.30973 19.9504L7.3515 19.9365L9.59906 19.1873C9.61419 19.1822 9.6292 19.1772 9.64409 19.1723C9.86734 19.098 10.0644 19.0324 10.2532 18.9387C10.4195 18.8561 10.5777 18.7584 10.7258 18.6466C10.8942 18.5196 11.0409 18.3727 11.2072 18.2062C11.2183 18.1951 11.2295 18.1839 11.2408 18.1726L17.7021 11.7113C17.7036 11.7098 17.7051 11.7083 17.7066 11.7068C17.7081 11.7054 17.7095 11.7039 17.711 11.7024ZM15.5853 10.9997L12.9995 8.41393L7.24075 14.1726C7.02267 14.3907 6.98159 14.4349 6.94924 14.4778C6.91198 14.5272 6.87939 14.5799 6.85187 14.6354C6.82798 14.6835 6.80682 14.74 6.70929 15.0326L5.9601 17.2801C5.79095 17.7876 5.68699 18.1026 5.63297 18.3325C5.6293 18.3481 5.62606 18.3626 5.62321 18.376C5.63658 18.3731 5.65106 18.3699 5.66668 18.3662C5.89654 18.3122 6.21159 18.2082 6.71905 18.0391L8.96661 17.2899C9.2592 17.1924 9.31571 17.1712 9.36383 17.1473C9.41924 17.1198 9.47198 17.0872 9.52136 17.05C9.56425 17.0176 9.60845 16.9765 9.82654 16.7584L15.5853 10.9997ZM10.9995 19.9997C10.9995 19.4474 11.4472 18.9997 11.9995 18.9997H18.9995C19.5518 18.9997 19.9995 19.4474 19.9995 19.9997C19.9995 20.552 19.5518 20.9997 18.9995 20.9997H11.9995C11.4472 20.9997 10.9995 20.552 10.9995 19.9997Z" fill="#E0E0E0"/>
</g>
</svg>
