<svg width="42" height="42" viewBox="0 0 42 42" fill="none" xmlns="http://www.w3.org/2000/svg">
<g id="user/heart">
<path id="Icon (Stroke)" fill-rule="evenodd" clip-rule="evenodd" d="M20.9993 8.9762C17.2049 8.9762 14.129 12.0522 14.129 15.8466C14.129 19.641 17.2049 22.7169 20.9993 22.7169C24.7937 22.7169 27.8697 19.641 27.8697 15.8466C27.8697 12.0522 24.7937 8.9762 20.9993 8.9762ZM14.4794 23.8278C12.9163 24.3904 11.4884 25.152 10.2526 26.0789C7.44068 28.1878 5.54102 31.2325 5.54102 34.7401C5.54102 35.6887 6.31001 36.4577 7.25861 36.4577C8.20721 36.4577 8.9762 35.6887 8.9762 34.7401C8.9762 32.5561 10.1525 30.448 12.3137 28.827C14.4755 27.2057 17.5406 26.1521 20.9993 26.1521C26.6909 26.1521 31.3049 21.5382 31.3049 15.8466C31.3049 10.155 26.6909 5.54102 20.9993 5.54102C15.3077 5.54102 10.6938 10.155 10.6938 15.8466C10.6938 19.0645 12.1687 21.938 14.4794 23.8278ZM30.441 26.9006C28.7231 25.8742 26.4635 25.8015 24.6397 27.2994C22.4228 29.1201 22.0685 32.2595 23.8588 34.4741C24.4472 35.2018 25.5365 36.233 26.5105 37.1168C27.5185 38.0313 28.5217 38.8934 29.0154 39.3136C29.0184 39.3162 29.0218 39.3191 29.0257 39.3224C29.067 39.3577 29.1585 39.436 29.2524 39.5039C29.3762 39.5935 29.5885 39.73 29.8826 39.8144C30.2475 39.919 30.6364 39.919 31.0014 39.8144C31.2955 39.73 31.5078 39.5935 31.6316 39.5039C31.7254 39.436 31.817 39.3577 31.8583 39.3224C31.8622 39.3191 31.8656 39.3162 31.8686 39.3136C32.3623 38.8934 33.3655 38.0313 34.3735 37.1168C35.3475 36.233 36.4368 35.2018 37.0251 34.4741C38.7995 32.2793 38.511 29.1101 36.2262 27.2848C34.3949 25.8217 32.1555 25.8755 30.441 26.9006ZM29.1589 30.2457C28.4695 29.471 27.502 29.3939 26.82 29.954C26.025 30.607 25.9553 31.6033 26.5302 32.3144C26.9251 32.8029 27.8153 33.6623 28.8188 34.5727C29.393 35.0937 29.9683 35.5993 30.442 36.0102C30.9157 35.5993 31.4909 35.0937 32.0652 34.5727C33.0687 33.6623 33.9589 32.8029 34.3538 32.3144C34.9446 31.5835 34.8609 30.5909 34.082 29.9686C33.3562 29.3887 32.4019 29.4851 31.7251 30.2457C31.3992 30.612 30.9323 30.8215 30.442 30.8215C29.9517 30.8215 29.4848 30.612 29.1589 30.2457Z" fill="#313131"/>
</g>
</svg>
