<svg width="29" height="28" viewBox="0 0 29 28" fill="none" xmlns="http://www.w3.org/2000/svg">
<g id="home/plus">
<path id="Icon (Stroke)" fill-rule="evenodd" clip-rule="evenodd" d="M15.4141 3.83479C14.8801 3.38884 14.1192 3.38884 13.5853 3.83479L6.67304 9.60779C5.72349 10.4008 5.16634 11.5936 5.16634 12.8601V20.3079C5.16634 22.646 7.01702 24.5003 9.24967 24.5003H19.7497C21.9823 24.5003 23.833 22.6461 23.833 20.3079V12.8601C23.833 11.5936 23.2759 10.4008 22.3263 9.60779L15.4141 3.83479ZM12.0896 2.04391C13.4895 0.874688 15.5098 0.874686 16.9098 2.04391L23.822 7.8169C25.3099 9.05955 26.1663 10.9118 26.1663 12.8601V20.3079C26.1663 23.8892 23.316 26.8337 19.7497 26.8337H9.24967C5.68334 26.8337 2.83301 23.8892 2.83301 20.3079V12.8601C2.83301 10.9118 3.68944 9.05955 5.17732 7.8169L12.0896 2.04391ZM14.4997 9.76282C15.144 9.76282 15.6663 10.2852 15.6663 10.9295V13.7821H18.4372C19.0815 13.7821 19.6038 14.3045 19.6038 14.9488C19.6038 15.5931 19.0815 16.1155 18.4372 16.1155H15.6663V18.9681C15.6663 19.6125 15.144 20.1348 14.4997 20.1348C13.8553 20.1348 13.333 19.6125 13.333 18.9681V16.1155H10.5622C9.91784 16.1155 9.39551 15.5931 9.39551 14.9488C9.39551 14.3045 9.91784 13.7821 10.5622 13.7821H13.333V10.9295C13.333 10.2852 13.8553 9.76282 14.4997 9.76282Z" fill="#E0E0E0"/>
</g>
</svg>
