<svg width="76" height="106" viewBox="0 0 76 106" fill="none" xmlns="http://www.w3.org/2000/svg">
<rect width="76" height="106" fill="#1E1E1E"/>
<g id="UI Design">
<path d="M-11708 -1922C-11708 -1923.1 -11707.1 -1924 -11706 -1924H12193C12194.1 -1924 12195 -1923.1 12195 -1922V19762C12195 19763.1 12194.1 19764 12193 19764H-11706C-11707.1 19764 -11708 19763.1 -11708 19762V-1922Z" fill="#404040"/>
<g id="Login Flow">
<path d="M-1020 -1281C-1020 -1282.1 -1019.1 -1283 -1018 -1283H6346C6347.1 -1283 6348 -1282.1 6348 -1281V1394C6348 1395.1 6347.1 1396 6346 1396H-1018C-1019.1 1396 -1020 1395.1 -1020 1394V-1281Z" fill="#5B5B5B"/>
<g id="Login/ Default " clip-path="url(#clip0_0_1)">
<rect width="1920" height="1080" transform="translate(-615 -483)" fill="white"/>
<g id="Container">
<rect id="Rectangle 7" x="-615" y="-483" width="1079" height="1080" fill="url(#paint0_linear_0_1)"/>
<g id="Logo">
<g id="Group 427319104">
<g id="Vector">
<path d="M9.42226 48.3291C9.64966 43.8182 11.0545 39.4447 13.4978 35.6414C16.3054 32.0438 19.3164 28.6087 22.5162 25.353C25.778 21.97 28.6435 18.2283 31.0576 14.1999L38.3416 0.777344L45.539 13.746C48.3394 18.2611 51.6171 22.4639 55.3161 26.2824C57.9839 29.0384 60.4542 31.978 62.7085 35.0795C64.7246 38.3216 67.6729 44.806 67.3044 48.3723C65.302 49.7138 63.2247 50.9406 61.0826 52.0468C59.1383 53.4075 56.7996 54.0938 54.426 54.0001C52.0525 53.9063 49.7755 53.0378 47.9453 51.5281L45.3655 49.8637C43.3945 48.3736 40.9887 47.567 38.5151 47.567C36.0414 47.567 33.6357 48.3736 31.6646 49.8637L28.0443 52.2629C26.6537 53.1366 25.0822 53.6836 23.4484 53.8624C20.6877 54.0958 17.9439 53.2511 15.7958 51.5064C13.9433 49.9748 11.7627 48.8877 9.42226 48.3291Z" fill="url(#paint1_linear_0_1)"/>
<path d="M67.6081 55.7494V52.8746L64.8115 55.0361C63.215 56.3885 61.355 57.3968 59.3485 57.9973C56.6021 58.8326 53.6367 58.561 51.0889 57.2408L49.7232 56.5491C39.1656 50.0648 36.2173 50.9077 26.9822 56.5491L25.6165 57.2408C21.801 59.1644 17.9422 58.0189 14.1268 56.16C13.6618 55.9353 13.2191 55.6675 12.8044 55.3603L9.03227 52.6152V57.4785C12.181 60.2435 16.0669 62.0381 20.2185 62.6444C22.4803 62.7277 24.724 62.2132 26.7221 61.153L28.1095 60.4613C36.781 55.1874 40.4664 55.4684 48.8344 60.4613L49.6365 60.8936L50.8938 61.4124C52.7061 62.0412 54.6114 62.3627 56.5303 62.3634C58.6199 62.3623 60.6877 61.9406 62.6099 61.1235C64.532 60.3064 66.269 59.1107 67.7165 57.6082L67.6081 55.7494Z" fill="#98F500"/>
<path d="M66.4372 64.3305L66.9141 61.7368L64.898 63.4227C63.2364 64.5997 61.4819 65.6405 59.6518 66.5352C56.9203 68.1563 54.3839 67.9185 50.9803 66.211L49.6145 65.5193C39.057 59.035 36.8675 59.9644 27.6324 65.5193L26.2666 66.211C22.4295 68.1347 18.4189 66.211 14.5818 64.3521C14.1214 64.1192 13.6793 63.8518 13.2594 63.5524L9.8775 61.1315L10.4628 64.3089L10.7447 66.319C10.7447 66.319 17.6168 71.701 20.7168 71.8739C22.692 72.0867 24.6868 71.7265 26.4617 70.8365L28.6296 69.5612C37.301 64.2657 40.206 64.2657 48.8124 70.1664L49.6362 70.5771L50.8936 71.1174C52.9621 71.9389 55.2376 72.0902 57.3972 71.5497C64.0742 69.7557 66.0687 66.0597 66.0687 66.0597L66.4372 64.3305Z" fill="#98F500"/>
<path d="M16.5544 73.9921C19.4368 75.4301 22.7236 75.8493 25.8763 75.1808C30.212 74.0569 32.3799 70.5986 36.7156 69.3017C38.1025 69.0467 39.5293 69.1087 40.8886 69.4831C42.248 69.8575 43.5044 70.5345 44.5633 71.4632C46.4541 73.1369 48.6669 74.4092 51.0669 75.2025C53.8287 76.0193 56.7827 75.913 59.4782 74.8999C56.665 78.2715 52.8814 80.7009 48.6389 81.8597C42.3721 83.1938 35.8935 83.1938 29.6267 81.8597C24.5148 80.7549 19.9163 77.9872 16.5544 73.9921Z" fill="#98F500"/>
<path d="M59.3266 87.5876C63.7101 89.195 67.94 91.1916 71.9653 93.5531C75.3038 95.9091 70.2527 98.049 68.5401 98.7622C59.1099 102.696 48.1404 102.955 38.1899 103.085C28.2394 103.215 17.9854 102.502 8.53347 99.1081C7.14603 98.6109 1.74805 96.6873 3.78585 94.2232C6.66912 90.7433 16.7931 88.0631 16.7931 88.0631C16.7931 88.0631 5.41175 88.9925 1.61798 92.6021C-0.54989 94.569 0.815861 97.6167 2.74526 99.0865C6.34393 102.004 11.1783 102.999 15.449 103.885C22.9507 105.307 30.5759 105.981 38.2116 105.895C45.5152 105.954 52.8087 105.339 59.9987 104.058C64.7359 103.51 69.2908 101.915 73.3311 99.3891C75.4989 97.8761 77.1248 94.8716 75.022 92.7966C71.0548 88.906 59.3483 87.5876 59.3483 87.5876H59.3266Z" fill="#98F500"/>
<path d="M51.5654 88.5172C54.3708 89.5472 57.0771 90.8277 59.6515 92.343C61.8194 93.856 58.5459 95.2177 57.4837 95.6716C51.4353 98.2005 44.4765 98.3734 37.9728 98.3951C31.5421 98.6514 25.1158 97.7883 18.9823 95.8445C18.0935 95.5203 14.6466 94.2883 15.9473 92.7321C17.79 90.5706 24.2936 88.7766 24.2936 88.7766C24.2936 88.7766 17.0095 89.3602 14.5598 91.673C14.3018 91.9861 14.1142 92.3507 14.0097 92.7424C13.9052 93.134 13.8862 93.5434 13.954 93.9429C14.0218 94.3425 14.1749 94.7229 14.4028 95.0584C14.6308 95.3939 14.9283 95.6768 15.2753 95.8878C17.7 97.5441 20.4878 98.5966 23.4048 98.957C28.2051 99.8735 33.0856 100.308 37.9728 100.254C42.6524 100.287 47.3252 99.8962 51.9339 99.0867C54.975 98.7386 57.9001 97.7197 60.497 96.1039C61.8411 95.1529 62.925 93.2076 61.5809 91.781C59.0445 89.2737 51.5654 88.4308 51.5654 88.4308V88.5172Z" fill="#98F500"/>
</g>
</g>
</g>
</g>
</g>
<path d="M-1018 -1282H6346V-1284H-1018V-1282ZM6347 -1281V1394H6349V-1281H6347ZM6346 1395H-1018V1397H6346V1395ZM-1019 1394V-1281H-1021V1394H-1019ZM-1018 1395C-1018.55 1395 -1019 1394.55 -1019 1394H-1021C-1021 1395.66 -1019.66 1397 -1018 1397V1395ZM6347 1394C6347 1394.55 6346.55 1395 6346 1395V1397C6347.66 1397 6349 1395.66 6349 1394H6347ZM6346 -1282C6346.55 -1282 6347 -1281.55 6347 -1281H6349C6349 -1282.66 6347.66 -1284 6346 -1284V-1282ZM-1018 -1284C-1019.66 -1284 -1021 -1282.66 -1021 -1281H-1019C-1019 -1281.55 -1018.55 -1282 -1018 -1282V-1284Z" fill="white" fill-opacity="0.1"/>
</g>
<path d="M-11706 -1923H12193V-1925H-11706V-1923ZM12194 -1922V19762H12196V-1922H12194ZM12193 19763H-11706V19765H12193V19763ZM-11707 19762V-1922H-11709V19762H-11707ZM-11706 19763C-11706.6 19763 -11707 19762.6 -11707 19762H-11709C-11709 19763.7 -11707.7 19765 -11706 19765V19763ZM12194 19762C12194 19762.6 12193.6 19763 12193 19763V19765C12194.7 19765 12196 19763.7 12196 19762H12194ZM12193 -1923C12193.6 -1923 12194 -1922.55 12194 -1922H12196C12196 -1923.66 12194.7 -1925 12193 -1925V-1923ZM-11706 -1925C-11707.7 -1925 -11709 -1923.66 -11709 -1922H-11707C-11707 -1922.55 -11706.6 -1923 -11706 -1923V-1925Z" fill="white" fill-opacity="0.1"/>
</g>
<defs>
<linearGradient id="paint0_linear_0_1" x1="-142.091" y1="-454.504" x2="376.714" y2="-133.214" gradientUnits="userSpaceOnUse">
<stop stop-color="#00466A"/>
<stop offset="1" stop-color="#00231E"/>
</linearGradient>
<linearGradient id="paint1_linear_0_1" x1="38.2561" y1="0.777344" x2="37.3129" y2="59.3739" gradientUnits="userSpaceOnUse">
<stop stop-color="#0093E0"/>
<stop offset="1" stop-color="#188BC7"/>
</linearGradient>
<clipPath id="clip0_0_1">
<rect width="1920" height="1080" fill="white" transform="translate(-615 -483)"/>
</clipPath>
</defs>
</svg>
