<svg width="10" height="14" viewBox="0 0 10 14" fill="none" xmlns="http://www.w3.org/2000/svg">
<g id="money" clip-path="url(#clip0_145_8001)">
<path id="Vector" d="M5.21836 6.16146C6.56003 6.42882 7.62461 6.81771 8.41211 7.32812C9.19961 7.83854 9.59336 8.57986 9.59336 9.55208C9.59336 10.3299 9.2944 10.9497 8.69648 11.4115C8.09857 11.8733 7.31836 12.1771 6.35586 12.3229V14H3.55586V12.3229C2.56419 12.1528 1.75482 11.8125 1.12773 11.3021C0.500651 10.7917 0.157943 10.1354 0.0996094 9.33333H2.15586C2.27253 10.4271 3.20586 10.974 4.95586 10.974C5.86003 10.974 6.50169 10.8281 6.88086 10.5365C7.26003 10.2448 7.44961 9.92882 7.44961 9.58854C7.44961 9.17535 7.25273 8.81076 6.85898 8.49479C6.46523 8.17882 5.72878 7.91146 4.64961 7.69271C1.73294 7.10937 0.274609 6.03993 0.274609 4.48438C0.274609 3.77951 0.580859 3.17795 1.19336 2.67969C1.80586 2.18142 2.59336 1.84722 3.55586 1.67708V0H6.35586V1.71354C7.28919 1.90799 8.01107 2.27257 8.52149 2.80729C9.0319 3.34201 9.30169 3.96181 9.33086 4.66667H7.27461C7.21628 3.57292 6.44336 3.02604 4.95586 3.02604C4.16836 3.02604 3.54857 3.15972 3.09648 3.42708C2.6444 3.69444 2.41836 4.04688 2.41836 4.48438C2.41836 4.84896 2.62253 5.15885 3.03086 5.41406C3.43919 5.66927 4.16836 5.9184 5.21836 6.16146Z" fill="#313131"/>
</g>
<defs>
<clipPath id="clip0_145_8001">
<rect width="9.8" height="14" fill="white" transform="translate(0.0996094)"/>
</clipPath>
</defs>
</svg>
