<svg width="29" height="28" viewBox="0 0 29 28" fill="none" xmlns="http://www.w3.org/2000/svg">
<g id="newspaper">
<path id="newspaper_2" d="M4.09375 20.3691C4.09375 22.1885 5.0957 23.1816 6.98535 23.1816H22.0059C23.9131 23.1816 24.9062 22.1973 24.9062 20.3164V7.00098C24.9062 5.12012 23.9131 4.13574 22.0059 4.13574H11.0107C9.10352 4.13574 8.11914 5.12012 8.11914 7.00098V10.9121H6.18555C4.87598 10.9121 4.09375 11.6504 4.09375 12.9072V20.3691ZM9.61328 21.4238C9.78027 21.1074 9.86816 20.7295 9.86816 20.2988V7.15918C9.86816 6.31543 10.3076 5.89355 11.125 5.89355H21.8916C22.7178 5.89355 23.1484 6.31543 23.1484 7.15918V20.1582C23.1484 21.002 22.7178 21.4238 21.8916 21.4238H9.61328ZM12.1006 9.62891H20.9336C21.2676 9.62891 21.5225 9.36523 21.5225 9.03125C21.5225 8.70605 21.2676 8.45117 20.9336 8.45117H12.1006C11.749 8.45117 11.4941 8.70605 11.4941 9.03125C11.4941 9.36523 11.7578 9.62891 12.1006 9.62891ZM12.1006 12.6611H20.9336C21.2676 12.6611 21.5225 12.4062 21.5225 12.0811C21.5225 11.7471 21.2676 11.4834 20.9336 11.4834H12.1006C11.7578 11.4834 11.4941 11.7471 11.4941 12.0811C11.4941 12.4062 11.749 12.6611 12.1006 12.6611ZM5.84277 20.2725V13.2148C5.84277 12.8721 6.0625 12.6611 6.41406 12.6611H8.11914V20.2725C8.11914 20.9492 7.62695 21.4238 6.98535 21.4238C6.34375 21.4238 5.84277 20.9316 5.84277 20.2725ZM12.5928 18.7607H14.7725C15.458 18.7607 15.8799 18.3477 15.8799 17.6621V15.623C15.8799 14.9463 15.458 14.5244 14.7725 14.5244H12.5928C11.9072 14.5244 11.4854 14.9463 11.4854 15.623V17.6621C11.4854 18.3477 11.9072 18.7607 12.5928 18.7607ZM17.4355 15.7021H20.9336C21.2676 15.7021 21.5225 15.4473 21.5225 15.1221C21.5225 14.7881 21.2676 14.5244 20.9336 14.5244H17.4355C17.084 14.5244 16.8379 14.7881 16.8379 15.1221C16.8379 15.4473 17.0928 15.7021 17.4355 15.7021ZM17.4355 18.7607H20.9336C21.2676 18.7607 21.5225 18.5059 21.5225 18.1807C21.5225 17.8467 21.2676 17.583 20.9336 17.583H17.4355C17.0928 17.583 16.8379 17.8467 16.8379 18.1807C16.8379 18.5059 17.084 18.7607 17.4355 18.7607Z" fill="white"/>
</g>
</svg>
