<svg width="33" height="33" viewBox="0 0 33 33" fill="none" xmlns="http://www.w3.org/2000/svg">
<g id="office life">
<g id="Group">
<g id="Group_2">
<path id="Vector" d="M32.6133 24.8789H0.386719V19.7227H32.6133V24.8789ZM1.67578 23.5898H31.3242V21.0117H1.67578V23.5898Z" fill="#313131"/>
</g>
<g id="Group_3">
<path id="Vector_2" d="M4.25391 24.2344H2.96484V31.9688H4.25391V24.2344Z" fill="#313131"/>
</g>
<g id="Group_4">
<path id="Vector_3" d="M30.0352 24.2344H28.7461V31.9688H30.0352V24.2344Z" fill="#313131"/>
</g>
<g id="Group_5">
<path id="Vector_4" d="M28.7461 21.0117H22.3008V14.5664H28.7461V21.0117ZM23.5898 19.7227H27.457V15.8555H23.5898V19.7227Z" fill="#313131"/>
</g>
<g id="Group_6">
<path id="Vector_5" d="M25.5234 9.41016C23.0357 9.41016 21.0117 7.3862 21.0117 4.89844C21.0117 2.41068 23.0357 0.386719 25.5234 0.386719C28.0112 0.386719 30.0352 2.41068 30.0352 4.89844C30.0352 7.3862 28.0112 9.41016 25.5234 9.41016ZM25.5234 1.67578C23.7465 1.67578 22.3008 3.12146 22.3008 4.89844C22.3008 6.67541 23.7465 8.12109 25.5234 8.12109C27.3004 8.12109 28.7461 6.67541 28.7461 4.89844C28.7461 3.12146 27.3004 1.67578 25.5234 1.67578Z" fill="#313131"/>
</g>
<g id="Group_7">
<path id="Vector_6" d="M26.168 5.54297H23.5898V4.25391H24.8789V2.96484H26.168V5.54297Z" fill="#313131"/>
</g>
<g id="Group_8">
<path id="Vector_7" d="M24.8789 12.6328H23.5898V13.9219H24.8789V12.6328Z" fill="#313131"/>
</g>
<g id="Group_9">
<path id="Vector_8" d="M27.457 11.3438H26.168V13.9219H27.457V11.3438Z" fill="#313131"/>
</g>
<g id="Group_10">
<path id="Vector_9" d="M13.9219 21.0117H8.76562V13.2773H13.9219V21.0117ZM10.0547 19.7227H12.6328V14.5664H10.0547V19.7227Z" fill="#313131"/>
</g>
<g id="Group_11">
<path id="Vector_10" d="M17.7891 17.1445H12.6328V14.5664H10.0547V17.1445H4.89844C3.83225 17.1445 2.96484 16.2771 2.96484 15.2109V7.47656C2.96484 6.41038 3.83225 5.54297 4.89844 5.54297H17.7891C18.8552 5.54297 19.7227 6.41038 19.7227 7.47656V15.2109C19.7227 16.2771 18.8552 17.1445 17.7891 17.1445ZM13.9219 15.8555H17.7891C18.1445 15.8555 18.4336 15.5663 18.4336 15.2109V7.47656C18.4336 7.12117 18.1445 6.83203 17.7891 6.83203H4.89844C4.54304 6.83203 4.25391 7.12117 4.25391 7.47656V15.2109C4.25391 15.5663 4.54304 15.8555 4.89844 15.8555H8.76562V13.2773H13.9219V15.8555Z" fill="#313131"/>
</g>
<g id="Group_12">
<path id="Vector_11" d="M13.3096 10.6992H9.44238V11.9883H13.3096V10.6992Z" fill="#313131"/>
</g>
</g>
</g>
</svg>
