<svg width="42" height="42" viewBox="0 0 42 42" fill="none" xmlns="http://www.w3.org/2000/svg">
<g id="home/plus">
<path id="Icon (Stroke)" fill-rule="evenodd" clip-rule="evenodd" d="M22.3463 6.03404C21.5602 5.37749 20.4401 5.37749 19.654 6.03404L9.47759 14.5332C8.07964 15.7007 7.2594 17.4567 7.2594 19.3212V30.2861C7.2594 33.7284 9.98401 36.4583 13.271 36.4583H28.7293C32.0163 36.4583 34.7409 33.7284 34.7409 30.2861V19.3212C34.7409 17.4567 33.9206 15.7007 32.5227 14.5332L22.3463 6.03404ZM17.4519 3.39746C19.513 1.67611 22.4873 1.67611 24.5484 3.39746L34.7247 11.8966C36.9152 13.726 38.1761 16.453 38.1761 19.3212V30.2861C38.1761 35.5586 33.9797 39.8935 28.7293 39.8935H13.271C8.02055 39.8935 3.82422 35.5586 3.82422 30.2861V19.3212C3.82422 16.453 5.08508 13.726 7.27556 11.8966L17.4519 3.39746ZM21.0001 14.7614C21.9487 14.7614 22.7177 15.5304 22.7177 16.479V20.6787H26.797C27.7456 20.6787 28.5146 21.4477 28.5146 22.3963C28.5146 23.3449 27.7456 24.1139 26.797 24.1139H22.7177V28.3137C22.7177 29.2623 21.9487 30.0313 21.0001 30.0313C20.0515 30.0313 19.2826 29.2623 19.2826 28.3137V24.1139H15.2033C14.2547 24.1139 13.4857 23.3449 13.4857 22.3963C13.4857 21.4477 14.2547 20.6787 15.2033 20.6787H19.2826V16.479C19.2826 15.5304 20.0515 14.7614 21.0001 14.7614Z" fill="#313131"/>
</g>
</svg>
