<svg width="29" height="28" viewBox="0 0 29 28" fill="none" xmlns="http://www.w3.org/2000/svg">
<g id="file/stamp">
<path id="Icon (Stroke)" fill-rule="evenodd" clip-rule="evenodd" d="M8.8776 1.16699H17.7891C18.4144 1.16697 18.9539 1.16695 19.398 1.20383C19.8669 1.24277 20.3329 1.32877 20.7801 1.56105C21.4193 1.89311 21.9406 2.41433 22.2726 3.05358C22.5049 3.50073 22.5909 3.96678 22.6298 4.43565C22.6667 4.87975 22.6667 5.41922 22.6667 6.04457V9.33366C22.6667 9.97799 22.1443 10.5003 21.5 10.5003C20.8557 10.5003 20.3333 9.97799 20.3333 9.33366V6.09033C20.3333 5.40634 20.3324 4.96469 20.3045 4.62875C20.2778 4.30678 20.2324 4.18777 20.202 4.12919C20.0913 3.91611 19.9176 3.74237 19.7045 3.63168C19.6459 3.60125 19.5269 3.5559 19.2049 3.52916C18.869 3.50127 18.4273 3.50033 17.7433 3.50033H8.92334C8.23935 3.50033 7.7977 3.50127 7.46176 3.52916C7.13979 3.5559 7.02078 3.60125 6.9622 3.63168C6.74911 3.74237 6.57537 3.91611 6.46469 4.12919C6.43426 4.18777 6.38891 4.30678 6.36217 4.62875C6.33427 4.96469 6.33334 5.40634 6.33334 6.09033V19.577C6.33334 20.261 6.33427 20.7026 6.36217 21.0386C6.38891 21.3605 6.43426 21.4796 6.46469 21.5381C6.57537 21.7512 6.74911 21.925 6.9622 22.0356C7.02078 22.0661 7.13979 22.1114 7.46176 22.1382C7.7977 22.1661 8.23935 22.167 8.92334 22.167H9.83334C10.4777 22.167 11 22.6893 11 23.3337C11 23.978 10.4777 24.5003 9.83334 24.5003H8.87763C8.25226 24.5003 7.71277 24.5004 7.26865 24.4635C6.79979 24.4245 6.33373 24.3385 5.88659 24.1063C5.24734 23.7742 4.72612 23.253 4.39406 22.6137C4.16178 22.1666 4.07578 21.7005 4.03684 21.2317C3.99996 20.7876 3.99998 20.2481 4 19.6227V6.04459C3.99998 5.41923 3.99996 4.87976 4.03684 4.43565C4.07578 3.96678 4.16178 3.50073 4.39406 3.05358C4.72612 2.41433 5.24734 1.89311 5.88659 1.56105C6.33374 1.32877 6.79979 1.24277 7.26865 1.20383C7.71276 1.16695 8.25224 1.16697 8.8776 1.16699ZM8.66667 7.00033C8.66667 6.356 9.189 5.83366 9.83334 5.83366H16.8333C17.4777 5.83366 18 6.356 18 7.00033C18 7.64466 17.4777 8.16699 16.8333 8.16699H9.83334C9.189 8.16699 8.66667 7.64466 8.66667 7.00033ZM8.66667 11.667C8.66667 11.0227 9.189 10.5003 9.83334 10.5003H12.1667C12.811 10.5003 13.3333 11.0227 13.3333 11.667C13.3333 12.3113 12.811 12.8337 12.1667 12.8337H9.83334C9.189 12.8337 8.66667 12.3113 8.66667 11.667ZM15.4479 13.2361C15.833 12.3814 16.6853 11.667 17.8259 11.667H20.5074C21.6481 11.667 22.5003 12.3814 22.8855 13.2361C23.2692 14.0879 23.2418 15.1778 22.5794 16.061L22.1974 16.5704C21.9391 16.9148 21.7916 17.3532 21.7916 17.8139V17.9347C21.7916 18.1499 21.9185 18.2776 22.0129 18.3112L23.9421 18.9971C25.3084 19.4829 26.1667 20.8132 26.1667 22.2404C26.1667 24.0607 24.7656 25.667 22.8813 25.667H15.452C13.5678 25.667 12.1667 24.0607 12.1667 22.2403C12.1667 20.8132 13.0249 19.4829 14.3912 18.9971L16.3203 18.3112C16.4146 18.2776 16.5416 18.1499 16.5416 17.9347V17.8138C16.5416 17.3532 16.3941 16.9148 16.1358 16.5704L15.7538 16.0609C15.0914 15.1777 15.0641 14.0878 15.4479 13.2361ZM17.5752 14.1946C17.5043 14.3519 17.519 14.5256 17.6205 14.661L18.0026 15.1704C18.5716 15.9293 18.8749 16.8616 18.8749 17.8138V17.9347C18.8749 19.0586 18.1986 20.1198 17.102 20.5097L15.1729 21.1956C14.8089 21.325 14.5 21.7219 14.5 22.2403C14.5 22.9163 14.996 23.3337 15.452 23.3337H22.8813C23.3373 23.3337 23.8333 22.9163 23.8333 22.2404C23.8333 21.7219 23.5245 21.325 23.1604 21.1956L21.2312 20.5097C20.1346 20.1198 19.4582 19.0586 19.4582 17.9347V17.8139C19.4582 16.8617 19.7616 15.9292 20.3308 15.1703L20.7128 14.661C20.8143 14.5256 20.8289 14.3519 20.7581 14.1946C20.6886 14.0403 20.5895 14.0003 20.5074 14.0003H17.8259C17.7438 14.0003 17.6447 14.0403 17.5752 14.1946ZM8.66667 16.3337C8.66667 15.6893 9.189 15.167 9.83334 15.167H12.1667C12.811 15.167 13.3333 15.6893 13.3333 16.3337C13.3333 16.978 12.811 17.5003 12.1667 17.5003H9.83334C9.189 17.5003 8.66667 16.978 8.66667 16.3337Z" fill="white"/>
</g>
</svg>
