<svg width="29" height="28" viewBox="0 0 29 28" fill="none" xmlns="http://www.w3.org/2000/svg">
<g id="user/circle" clip-path="url(#clip0_516_1689)">
<path id="Icon (Stroke)" fill-rule="evenodd" clip-rule="evenodd" d="M14.5 2.33333C8.05668 2.33333 2.83333 7.55668 2.83333 14C2.83333 16.5971 3.68192 18.9959 5.11694 20.9345C5.54399 20.2663 6.04902 19.6344 6.63155 19.0519C7.90712 17.7763 9.41532 16.8751 11.0196 16.3484C9.5916 15.2851 8.66667 13.5839 8.66667 11.6667C8.66667 8.445 11.2783 5.83333 14.5 5.83333C17.7217 5.83333 20.3333 8.445 20.3333 11.6667C20.3333 13.5839 19.4084 15.2851 17.9805 16.3484C19.5848 16.8751 21.093 17.7763 22.3686 19.0519C22.9511 19.6344 23.4561 20.2663 23.8831 20.9344C25.3181 18.9959 26.1667 16.597 26.1667 14C26.1667 7.55668 20.9433 2.33333 14.5 2.33333ZM22.2365 22.7328C21.8419 22.0046 21.3364 21.3195 20.7187 20.7018C17.2842 17.2673 11.7159 17.2673 8.28147 20.7018C7.66376 21.3195 7.15821 22.0047 6.76363 22.7328C8.82266 24.5583 11.5319 25.6667 14.5 25.6667C17.4682 25.6667 20.1774 24.5582 22.2365 22.7328ZM0.5 14C0.500001 6.26801 6.76802 -6.95387e-07 14.5 0C22.232 6.95388e-07 28.5 6.26801 28.5 14C28.5 21.732 22.232 28 14.5 28C6.76801 28 0.499999 21.732 0.5 14ZM14.5 8.16667C12.567 8.16667 11 9.73367 11 11.6667C11 13.5997 12.567 15.1667 14.5 15.1667C16.433 15.1667 18 13.5997 18 11.6667C18 9.73367 16.433 8.16667 14.5 8.16667Z" fill="#E0E0E0"/>
</g>
<defs>
<clipPath id="clip0_516_1689">
<rect width="28" height="28" fill="white" transform="translate(0.5)"/>
</clipPath>
</defs>
</svg>
