<svg width="22" height="18" viewBox="0 0 22 18" fill="none" xmlns="http://www.w3.org/2000/svg">
<path fill-rule="evenodd" clip-rule="evenodd" d="M4.16146 8.6011e-07H17.8385C18.3657 -1.70213e-05 18.8205 -3.25181e-05 19.195 0.0305712C19.5904 0.0628722 19.9836 0.134188 20.362 0.326982C20.9265 0.614603 21.3854 1.07354 21.673 1.63803C21.8658 2.01641 21.9371 2.40963 21.9694 2.80497C22 3.17954 22 3.6343 22 4.16144V13.8386C22 14.3657 22 14.8205 21.9694 15.195C21.9371 15.5904 21.8658 15.9836 21.673 16.362C21.3854 16.9265 20.9265 17.3854 20.362 17.673C19.9836 17.8658 19.5904 17.9371 19.195 17.9694C18.8205 18 18.3657 18 17.8386 18H4.16144C3.6343 18 3.17954 18 2.80497 17.9694C2.40963 17.9371 2.01641 17.8658 1.63803 17.673C1.07354 17.3854 0.614602 16.9265 0.326982 16.362C0.134188 15.9836 0.0628723 15.5904 0.0305713 15.195C-3.25181e-05 14.8205 -1.70213e-05 14.3657 8.6011e-07 13.8385V4.16146C-1.70213e-05 3.63431 -3.25181e-05 3.17955 0.0305712 2.80497C0.0628723 2.40963 0.134188 2.01641 0.326982 1.63803C0.614602 1.07354 1.07354 0.614602 1.63803 0.326982C2.01641 0.134188 2.40963 0.0628723 2.80497 0.0305712C3.17955 -3.25181e-05 3.63431 -1.70213e-05 4.16146 8.6011e-07ZM3.63072 2.00147L10.3861 7.25563C10.7472 7.5365 11.2528 7.5365 11.6139 7.25563L18.3693 2.00147C18.2043 2.00011 18.0165 2 17.8 2H4.2C3.98346 2 3.79574 2.00011 3.63072 2.00147ZM19.9922 3.27294L12.8418 8.83434C11.7585 9.67693 10.2415 9.67693 9.15818 8.83434L2.00781 3.27294C2.00036 3.512 2 3.80903 2 4.2V13.8C2 14.3766 2.00078 14.7488 2.02393 15.0322C2.04612 15.3038 2.0838 15.4045 2.109 15.454C2.20487 15.6422 2.35785 15.7951 2.54601 15.891C2.59546 15.9162 2.69617 15.9539 2.96784 15.9761C3.25117 15.9992 3.62345 16 4.2 16H17.8C18.3766 16 18.7488 15.9992 19.0322 15.9761C19.3038 15.9539 19.4045 15.9162 19.454 15.891C19.6422 15.7951 19.7951 15.6422 19.891 15.454C19.9162 15.4045 19.9539 15.3038 19.9761 15.0322C19.9992 14.7488 20 14.3766 20 13.8V4.2C20 3.80903 19.9996 3.512 19.9922 3.27294Z" fill="#4F4F4F"/>
</svg>
